<mxfile host="app.diagrams.net" modified="2022-09-03T11:03:11.907Z" agent="5.0 (Macintosh; Intel Mac OS X 10_15_5) AppleWebKit/537.36 (KHTML, like Gecko) Chrome/104.0.5112.101 Safari/537.36" etag="A-zD2Zu_5Wu_LW0MP-C0" version="20.2.3" type="github" pages="3">
  <diagram id="JiIC8dIBj8p-Ec_Cyu_d" name="第 1 页">
    <mxGraphModel dx="2909" dy="2354" grid="1" gridSize="10" guides="1" tooltips="1" connect="1" arrows="1" fold="1" page="1" pageScale="1" pageWidth="827" pageHeight="1169" math="0" shadow="0">
      <root>
        <mxCell id="0" />
        <mxCell id="1" parent="0" />
        <mxCell id="yyr3SMdOdhXWKQ6tCNMZ-1" value="" style="rounded=0;whiteSpace=wrap;html=1;dashed=1;dashPattern=1 4;" vertex="1" parent="1">
          <mxGeometry x="-400" y="-150" width="1340" height="760" as="geometry" />
        </mxCell>
        <mxCell id="yyr3SMdOdhXWKQ6tCNMZ-33" value="" style="rounded=0;whiteSpace=wrap;html=1;fillColor=#fad7ac;strokeColor=#b46504;dashed=1;dashPattern=1 1;" vertex="1" parent="1">
          <mxGeometry x="-289" y="10" width="409" height="257" as="geometry" />
        </mxCell>
        <mxCell id="yyr3SMdOdhXWKQ6tCNMZ-15" value="" style="rounded=0;whiteSpace=wrap;html=1;dashed=1;dashPattern=1 1;fillColor=#fad7ac;strokeColor=#b46504;" vertex="1" parent="1">
          <mxGeometry x="-290" y="280" width="412" height="270" as="geometry" />
        </mxCell>
        <mxCell id="yyr3SMdOdhXWKQ6tCNMZ-10" value="" style="rounded=0;whiteSpace=wrap;html=1;fillColor=#fad7ac;strokeColor=#b46504;dashed=1;dashPattern=1 1;" vertex="1" parent="1">
          <mxGeometry x="185" y="217" width="300" height="333" as="geometry" />
        </mxCell>
        <mxCell id="yyr3SMdOdhXWKQ6tCNMZ-5" value="物流承运商" style="rounded=1;whiteSpace=wrap;html=1;fillColor=#f8cecc;strokeColor=#b85450;" vertex="1" parent="1">
          <mxGeometry x="208" y="408" width="112" height="50" as="geometry" />
        </mxCell>
        <mxCell id="yyr3SMdOdhXWKQ6tCNMZ-7" value="结算" style="rounded=1;whiteSpace=wrap;html=1;fillColor=#f8cecc;strokeColor=#b85450;" vertex="1" parent="1">
          <mxGeometry x="1" y="26" width="108" height="50" as="geometry" />
        </mxCell>
        <mxCell id="yyr3SMdOdhXWKQ6tCNMZ-8" value="商品池" style="rounded=1;whiteSpace=wrap;html=1;fillColor=#f8cecc;strokeColor=#b85450;" vertex="1" parent="1">
          <mxGeometry x="-277" y="404" width="110" height="50" as="geometry" />
        </mxCell>
        <mxCell id="yyr3SMdOdhXWKQ6tCNMZ-9" value="新品推送" style="rounded=1;whiteSpace=wrap;html=1;fillColor=#f8cecc;strokeColor=#b85450;" vertex="1" parent="1">
          <mxGeometry y="341" width="110" height="50" as="geometry" />
        </mxCell>
        <mxCell id="yyr3SMdOdhXWKQ6tCNMZ-11" value="询价-出价" style="rounded=1;whiteSpace=wrap;html=1;fillColor=#f8cecc;strokeColor=#b85450;" vertex="1" parent="1">
          <mxGeometry x="209" y="480" width="112" height="50" as="geometry" />
        </mxCell>
        <mxCell id="yyr3SMdOdhXWKQ6tCNMZ-12" value="鉴别数据" style="rounded=1;whiteSpace=wrap;html=1;fillColor=#f8cecc;strokeColor=#b85450;" vertex="1" parent="1">
          <mxGeometry x="357" y="478" width="112" height="50" as="geometry" />
        </mxCell>
        <mxCell id="yyr3SMdOdhXWKQ6tCNMZ-13" value="备案数据" style="rounded=1;whiteSpace=wrap;html=1;fillColor=#f8cecc;strokeColor=#b85450;" vertex="1" parent="1">
          <mxGeometry x="353" y="345" width="112" height="50" as="geometry" />
        </mxCell>
        <mxCell id="yyr3SMdOdhXWKQ6tCNMZ-14" value="跟价" style="rounded=1;whiteSpace=wrap;html=1;fillColor=#f8cecc;strokeColor=#b85450;" vertex="1" parent="1">
          <mxGeometry x="206" y="345" width="112" height="50" as="geometry" />
        </mxCell>
        <mxCell id="yyr3SMdOdhXWKQ6tCNMZ-19" value="商品匹配" style="rounded=1;whiteSpace=wrap;html=1;fillColor=#f8cecc;strokeColor=#b85450;" vertex="1" parent="1">
          <mxGeometry x="-143" y="403" width="112" height="50" as="geometry" />
        </mxCell>
        <mxCell id="yyr3SMdOdhXWKQ6tCNMZ-20" value="定价模型" style="rounded=1;whiteSpace=wrap;html=1;fillColor=#f8cecc;strokeColor=#b85450;" vertex="1" parent="1">
          <mxGeometry x="-277" y="473" width="112" height="50" as="geometry" />
        </mxCell>
        <mxCell id="yyr3SMdOdhXWKQ6tCNMZ-21" value="基础映射" style="rounded=1;whiteSpace=wrap;html=1;fillColor=#f8cecc;strokeColor=#b85450;" vertex="1" parent="1">
          <mxGeometry x="-142" y="473" width="112" height="50" as="geometry" />
        </mxCell>
        <mxCell id="yyr3SMdOdhXWKQ6tCNMZ-22" value="鉴定规则" style="rounded=1;whiteSpace=wrap;html=1;fillColor=#f8cecc;strokeColor=#b85450;" vertex="1" parent="1">
          <mxGeometry y="402" width="112" height="50" as="geometry" />
        </mxCell>
        <mxCell id="yyr3SMdOdhXWKQ6tCNMZ-23" value="商品聚合" style="rounded=1;whiteSpace=wrap;html=1;fillColor=#f8cecc;strokeColor=#b85450;" vertex="1" parent="1">
          <mxGeometry y="473" width="112" height="50" as="geometry" />
        </mxCell>
        <mxCell id="yyr3SMdOdhXWKQ6tCNMZ-26" value="商品折扣" style="rounded=1;whiteSpace=wrap;html=1;fillColor=#f8cecc;strokeColor=#b85450;" vertex="1" parent="1">
          <mxGeometry x="-144" y="342" width="110" height="50" as="geometry" />
        </mxCell>
        <mxCell id="yyr3SMdOdhXWKQ6tCNMZ-27" value="商品反杀" style="rounded=1;whiteSpace=wrap;html=1;fillColor=#f8cecc;strokeColor=#b85450;" vertex="1" parent="1">
          <mxGeometry x="-278" y="342" width="110" height="50" as="geometry" />
        </mxCell>
        <mxCell id="yyr3SMdOdhXWKQ6tCNMZ-28" value="" style="rounded=0;whiteSpace=wrap;html=1;fillColor=#fad7ac;strokeColor=#b46504;dashed=1;dashPattern=1 1;" vertex="1" parent="1">
          <mxGeometry x="185" y="10" width="300" height="200" as="geometry" />
        </mxCell>
        <mxCell id="yyr3SMdOdhXWKQ6tCNMZ-29" value="基础能力" style="text;html=1;strokeColor=#56517e;fillColor=#d0cee2;align=center;verticalAlign=middle;whiteSpace=wrap;rounded=0;dashed=1;dashPattern=1 1;fontSize=22;" vertex="1" parent="1">
          <mxGeometry x="494" y="220" width="40" height="330" as="geometry" />
        </mxCell>
        <mxCell id="yyr3SMdOdhXWKQ6tCNMZ-30" value="商品能力" style="text;html=1;strokeColor=#56517e;fillColor=#d0cee2;align=center;verticalAlign=middle;whiteSpace=wrap;rounded=0;dashed=1;dashPattern=1 1;fontSize=22;" vertex="1" parent="1">
          <mxGeometry x="-336" y="280" width="40" height="270" as="geometry" />
        </mxCell>
        <mxCell id="yyr3SMdOdhXWKQ6tCNMZ-34" value="买手店&lt;br&gt;" style="text;html=1;strokeColor=#56517e;fillColor=#d0cee2;align=center;verticalAlign=middle;whiteSpace=wrap;rounded=0;dashed=1;dashPattern=1 1;fontSize=22;" vertex="1" parent="1">
          <mxGeometry x="-335" y="10" width="40" height="80" as="geometry" />
        </mxCell>
        <mxCell id="yyr3SMdOdhXWKQ6tCNMZ-35" value="API对接" style="rounded=1;whiteSpace=wrap;html=1;fillColor=#f8cecc;strokeColor=#b85450;" vertex="1" parent="1">
          <mxGeometry x="-270" y="28" width="70" height="50" as="geometry" />
        </mxCell>
        <mxCell id="yyr3SMdOdhXWKQ6tCNMZ-37" value="履约能力" style="text;html=1;strokeColor=#56517e;fillColor=#d0cee2;align=center;verticalAlign=middle;whiteSpace=wrap;rounded=0;dashed=1;dashPattern=1 1;fontSize=22;" vertex="1" parent="1">
          <mxGeometry x="495" y="10" width="40" height="200" as="geometry" />
        </mxCell>
        <mxCell id="yyr3SMdOdhXWKQ6tCNMZ-38" value="发货时效/节假日" style="rounded=1;whiteSpace=wrap;html=1;fillColor=#f8cecc;strokeColor=#b85450;" vertex="1" parent="1">
          <mxGeometry x="208" y="222.5" width="112" height="50" as="geometry" />
        </mxCell>
        <mxCell id="yyr3SMdOdhXWKQ6tCNMZ-39" value="跨境直发" style="rounded=1;whiteSpace=wrap;html=1;fillColor=#f8cecc;strokeColor=#b85450;" vertex="1" parent="1">
          <mxGeometry x="350" y="20" width="112" height="50" as="geometry" />
        </mxCell>
        <mxCell id="yyr3SMdOdhXWKQ6tCNMZ-40" value="提货/配送" style="rounded=1;whiteSpace=wrap;html=1;fillColor=#f8cecc;strokeColor=#b85450;" vertex="1" parent="1">
          <mxGeometry x="202" y="85" width="112" height="50" as="geometry" />
        </mxCell>
        <mxCell id="yyr3SMdOdhXWKQ6tCNMZ-41" value="供应链交互" style="rounded=1;whiteSpace=wrap;html=1;fillColor=#f8cecc;strokeColor=#b85450;" vertex="1" parent="1">
          <mxGeometry x="350" y="152" width="112" height="50" as="geometry" />
        </mxCell>
        <mxCell id="yyr3SMdOdhXWKQ6tCNMZ-42" value="订单履约" style="rounded=1;whiteSpace=wrap;html=1;fillColor=#f8cecc;strokeColor=#b85450;" vertex="1" parent="1">
          <mxGeometry x="202" y="152" width="112" height="50" as="geometry" />
        </mxCell>
        <mxCell id="yyr3SMdOdhXWKQ6tCNMZ-44" value="S&lt;br&gt;A&lt;br&gt;A&lt;br&gt;S" style="text;html=1;strokeColor=#56517e;fillColor=#d0cee2;align=center;verticalAlign=middle;whiteSpace=wrap;rounded=0;dashed=1;dashPattern=1 1;fontSize=22;" vertex="1" parent="1">
          <mxGeometry x="-336" y="98" width="40" height="168" as="geometry" />
        </mxCell>
        <mxCell id="yyr3SMdOdhXWKQ6tCNMZ-45" value="商品录入" style="rounded=1;whiteSpace=wrap;html=1;fillColor=#f8cecc;strokeColor=#b85450;" vertex="1" parent="1">
          <mxGeometry x="-270" y="183" width="70" height="50" as="geometry" />
        </mxCell>
        <mxCell id="yyr3SMdOdhXWKQ6tCNMZ-46" value="热销榜单" style="rounded=1;whiteSpace=wrap;html=1;fillColor=#f8cecc;strokeColor=#b85450;" vertex="1" parent="1">
          <mxGeometry x="-180" y="182" width="69" height="50" as="geometry" />
        </mxCell>
        <mxCell id="yyr3SMdOdhXWKQ6tCNMZ-47" value="订单履约" style="rounded=1;whiteSpace=wrap;html=1;fillColor=#f8cecc;strokeColor=#b85450;" vertex="1" parent="1">
          <mxGeometry x="-90" y="182" width="70" height="50" as="geometry" />
        </mxCell>
        <mxCell id="yyr3SMdOdhXWKQ6tCNMZ-48" value="OpenAPI" style="rounded=1;whiteSpace=wrap;html=1;fillColor=#f8cecc;strokeColor=#b85450;" vertex="1" parent="1">
          <mxGeometry x="-270" y="108" width="70" height="50" as="geometry" />
        </mxCell>
        <mxCell id="yyr3SMdOdhXWKQ6tCNMZ-49" value="补单" style="rounded=1;whiteSpace=wrap;html=1;fillColor=#f8cecc;strokeColor=#b85450;" vertex="1" parent="1">
          <mxGeometry x="350" y="85" width="112" height="50" as="geometry" />
        </mxCell>
        <mxCell id="yyr3SMdOdhXWKQ6tCNMZ-50" value="发票/结算" style="rounded=1;whiteSpace=wrap;html=1;fillColor=#f8cecc;strokeColor=#b85450;" vertex="1" parent="1">
          <mxGeometry x="2" y="181" width="108" height="50" as="geometry" />
        </mxCell>
        <mxCell id="yyr3SMdOdhXWKQ6tCNMZ-51" value="数据图表" style="rounded=1;whiteSpace=wrap;html=1;fillColor=#f8cecc;strokeColor=#b85450;" vertex="1" parent="1">
          <mxGeometry x="-180" y="109" width="70" height="50" as="geometry" />
        </mxCell>
        <mxCell id="yyr3SMdOdhXWKQ6tCNMZ-52" value="任务中心" style="rounded=1;whiteSpace=wrap;html=1;fillColor=#f8cecc;strokeColor=#b85450;" vertex="1" parent="1">
          <mxGeometry x="-90" y="111" width="70" height="50" as="geometry" />
        </mxCell>
        <mxCell id="yyr3SMdOdhXWKQ6tCNMZ-56" value="欧洲直邮" style="rounded=1;whiteSpace=wrap;html=1;fillColor=#f8cecc;strokeColor=#b85450;" vertex="1" parent="1">
          <mxGeometry x="200" y="20" width="112" height="50" as="geometry" />
        </mxCell>
        <mxCell id="yyr3SMdOdhXWKQ6tCNMZ-57" value="调价/比价" style="rounded=1;whiteSpace=wrap;html=1;fillColor=#f8cecc;strokeColor=#b85450;" vertex="1" parent="1">
          <mxGeometry x="353" y="222.5" width="112" height="50" as="geometry" />
        </mxCell>
        <mxCell id="yyr3SMdOdhXWKQ6tCNMZ-58" value="调度模型" style="rounded=1;whiteSpace=wrap;html=1;fillColor=#f8cecc;strokeColor=#b85450;" vertex="1" parent="1">
          <mxGeometry x="-180" y="28" width="70" height="50" as="geometry" />
        </mxCell>
        <mxCell id="yyr3SMdOdhXWKQ6tCNMZ-59" value="网站爬虫" style="rounded=1;whiteSpace=wrap;html=1;fillColor=#f8cecc;strokeColor=#b85450;" vertex="1" parent="1">
          <mxGeometry x="-90" y="28" width="70" height="50" as="geometry" />
        </mxCell>
        <mxCell id="yyr3SMdOdhXWKQ6tCNMZ-60" value="数据同步" style="rounded=1;whiteSpace=wrap;html=1;fillColor=#f8cecc;strokeColor=#b85450;" vertex="1" parent="1">
          <mxGeometry x="355" y="407" width="112" height="50" as="geometry" />
        </mxCell>
        <mxCell id="yyr3SMdOdhXWKQ6tCNMZ-61" value="汇率换算" style="rounded=1;whiteSpace=wrap;html=1;fillColor=#f8cecc;strokeColor=#b85450;" vertex="1" parent="1">
          <mxGeometry x="206" y="284" width="112" height="50" as="geometry" />
        </mxCell>
        <mxCell id="yyr3SMdOdhXWKQ6tCNMZ-62" value="邮件推送" style="rounded=1;whiteSpace=wrap;html=1;fillColor=#f8cecc;strokeColor=#b85450;" vertex="1" parent="1">
          <mxGeometry x="353" y="285" width="112" height="50" as="geometry" />
        </mxCell>
        <mxCell id="yyr3SMdOdhXWKQ6tCNMZ-63" value="商品翻译" style="rounded=1;whiteSpace=wrap;html=1;fillColor=#f8cecc;strokeColor=#b85450;" vertex="1" parent="1">
          <mxGeometry x="-277" y="285" width="110" height="50" as="geometry" />
        </mxCell>
        <mxCell id="yyr3SMdOdhXWKQ6tCNMZ-64" value="国际化站点" style="rounded=1;whiteSpace=wrap;html=1;fillColor=#f8cecc;strokeColor=#b85450;" vertex="1" parent="1">
          <mxGeometry x="1" y="111" width="109" height="50" as="geometry" />
        </mxCell>
        <mxCell id="yyr3SMdOdhXWKQ6tCNMZ-67" value="黑名单配置" style="rounded=1;whiteSpace=wrap;html=1;fillColor=#f8cecc;strokeColor=#b85450;" vertex="1" parent="1">
          <mxGeometry x="-143" y="283" width="110" height="50" as="geometry" />
        </mxCell>
        <mxCell id="yyr3SMdOdhXWKQ6tCNMZ-68" value="选品平台" style="rounded=1;whiteSpace=wrap;html=1;fillColor=#f8cecc;strokeColor=#b85450;" vertex="1" parent="1">
          <mxGeometry x="1" y="283" width="110" height="50" as="geometry" />
        </mxCell>
        <mxCell id="pj3qVmMRg5w3DK5Hn0M7-1" value="国际SAAS" style="ellipse;shape=doubleEllipse;whiteSpace=wrap;html=1;aspect=fixed;dashed=1;dashPattern=1 4;fontSize=22;fillColor=#b1ddf0;strokeColor=#10739e;" vertex="1" parent="1">
          <mxGeometry x="94" y="189.5" width="116" height="116" as="geometry" />
        </mxCell>
      </root>
    </mxGraphModel>
  </diagram>
  <diagram id="IJdN0g3Ulg8wJ3vvG9AA" name="第 2 页">
    <mxGraphModel dx="2616" dy="645" grid="1" gridSize="10" guides="1" tooltips="1" connect="1" arrows="1" fold="1" page="1" pageScale="1" pageWidth="827" pageHeight="1169" math="0" shadow="0">
      <root>
        <mxCell id="0" />
        <mxCell id="1" parent="0" />
        <mxCell id="6oQTB0y6NrpeV0Yk_Au4-6" value="" style="rounded=1;whiteSpace=wrap;html=1;dashed=1;dashPattern=1 2;labelBackgroundColor=none;fontSize=23;gradientDirection=east;" vertex="1" parent="1">
          <mxGeometry x="-1220" y="110" width="1700" height="770" as="geometry" />
        </mxCell>
        <mxCell id="EEXzHhZnM7cGJq6CUxRj-2" value="" style="rounded=0;whiteSpace=wrap;html=1;fillColor=#b1ddf0;strokeColor=#10739e;dashed=1;dashPattern=1 1;gradientColor=#CC6600;" vertex="1" parent="1">
          <mxGeometry x="-1043" y="683" width="485" height="170" as="geometry" />
        </mxCell>
        <mxCell id="EEXzHhZnM7cGJq6CUxRj-4" value="" style="rounded=0;whiteSpace=wrap;html=1;fillColor=#fad7ac;strokeColor=#b46504;dashed=1;dashPattern=1 1;" vertex="1" parent="1">
          <mxGeometry x="822" y="318" width="300" height="333" as="geometry" />
        </mxCell>
        <mxCell id="EEXzHhZnM7cGJq6CUxRj-5" value="物流承运商" style="rounded=1;whiteSpace=wrap;html=1;fillColor=#f8cecc;strokeColor=#b85450;" vertex="1" parent="1">
          <mxGeometry x="845" y="509" width="112" height="50" as="geometry" />
        </mxCell>
        <mxCell id="EEXzHhZnM7cGJq6CUxRj-9" value="询价-出价" style="rounded=1;whiteSpace=wrap;html=1;fillColor=#f8cecc;strokeColor=#b85450;" vertex="1" parent="1">
          <mxGeometry x="846" y="581" width="112" height="50" as="geometry" />
        </mxCell>
        <mxCell id="EEXzHhZnM7cGJq6CUxRj-10" value="鉴别数据" style="rounded=1;whiteSpace=wrap;html=1;fillColor=#f8cecc;strokeColor=#b85450;" vertex="1" parent="1">
          <mxGeometry x="994" y="579" width="112" height="50" as="geometry" />
        </mxCell>
        <mxCell id="EEXzHhZnM7cGJq6CUxRj-11" value="备案数据" style="rounded=1;whiteSpace=wrap;html=1;fillColor=#f8cecc;strokeColor=#b85450;" vertex="1" parent="1">
          <mxGeometry x="990" y="446" width="112" height="50" as="geometry" />
        </mxCell>
        <mxCell id="EEXzHhZnM7cGJq6CUxRj-12" value="跟价" style="rounded=1;whiteSpace=wrap;html=1;fillColor=#f8cecc;strokeColor=#b85450;" vertex="1" parent="1">
          <mxGeometry x="843" y="446" width="112" height="50" as="geometry" />
        </mxCell>
        <mxCell id="EEXzHhZnM7cGJq6CUxRj-20" value="" style="rounded=0;whiteSpace=wrap;html=1;fillColor=#fad7ac;strokeColor=#b46504;dashed=1;dashPattern=1 1;" vertex="1" parent="1">
          <mxGeometry x="822" y="111" width="300" height="200" as="geometry" />
        </mxCell>
        <mxCell id="EEXzHhZnM7cGJq6CUxRj-21" value="基础能力" style="text;html=1;strokeColor=#56517e;fillColor=#d0cee2;align=center;verticalAlign=middle;whiteSpace=wrap;rounded=0;dashed=1;dashPattern=1 1;fontSize=22;" vertex="1" parent="1">
          <mxGeometry x="1131" y="321" width="40" height="330" as="geometry" />
        </mxCell>
        <mxCell id="EEXzHhZnM7cGJq6CUxRj-25" value="履约能力" style="text;html=1;strokeColor=#56517e;fillColor=#d0cee2;align=center;verticalAlign=middle;whiteSpace=wrap;rounded=0;dashed=1;dashPattern=1 1;fontSize=22;" vertex="1" parent="1">
          <mxGeometry x="1132" y="111" width="40" height="200" as="geometry" />
        </mxCell>
        <mxCell id="EEXzHhZnM7cGJq6CUxRj-26" value="发货时效/节假日" style="rounded=1;whiteSpace=wrap;html=1;fillColor=#f8cecc;strokeColor=#b85450;" vertex="1" parent="1">
          <mxGeometry x="845" y="323.5" width="112" height="50" as="geometry" />
        </mxCell>
        <mxCell id="EEXzHhZnM7cGJq6CUxRj-27" value="跨境直发" style="rounded=1;whiteSpace=wrap;html=1;fillColor=#f8cecc;strokeColor=#b85450;" vertex="1" parent="1">
          <mxGeometry x="987" y="121" width="112" height="50" as="geometry" />
        </mxCell>
        <mxCell id="EEXzHhZnM7cGJq6CUxRj-28" value="提货/配送" style="rounded=1;whiteSpace=wrap;html=1;fillColor=#f8cecc;strokeColor=#b85450;" vertex="1" parent="1">
          <mxGeometry x="839" y="186" width="112" height="50" as="geometry" />
        </mxCell>
        <mxCell id="EEXzHhZnM7cGJq6CUxRj-29" value="供应链交互" style="rounded=1;whiteSpace=wrap;html=1;fillColor=#f8cecc;strokeColor=#b85450;" vertex="1" parent="1">
          <mxGeometry x="987" y="253" width="112" height="50" as="geometry" />
        </mxCell>
        <mxCell id="EEXzHhZnM7cGJq6CUxRj-30" value="订单履约" style="rounded=1;whiteSpace=wrap;html=1;fillColor=#f8cecc;strokeColor=#b85450;" vertex="1" parent="1">
          <mxGeometry x="839" y="253" width="112" height="50" as="geometry" />
        </mxCell>
        <mxCell id="EEXzHhZnM7cGJq6CUxRj-31" value="S&lt;br&gt;A&lt;br&gt;A&lt;br&gt;S" style="text;html=1;strokeColor=#56517e;fillColor=#d0cee2;align=center;verticalAlign=middle;whiteSpace=wrap;rounded=0;dashed=1;dashPattern=1 1;fontSize=22;gradientColor=#FFCCE6;" vertex="1" parent="1">
          <mxGeometry x="-1158" y="143" width="60" height="712.12" as="geometry" />
        </mxCell>
        <mxCell id="EEXzHhZnM7cGJq6CUxRj-36" value="补单" style="rounded=1;whiteSpace=wrap;html=1;fillColor=#f8cecc;strokeColor=#b85450;" vertex="1" parent="1">
          <mxGeometry x="987" y="186" width="112" height="50" as="geometry" />
        </mxCell>
        <mxCell id="EEXzHhZnM7cGJq6CUxRj-40" value="欧洲直邮" style="rounded=1;whiteSpace=wrap;html=1;fillColor=#f8cecc;strokeColor=#b85450;" vertex="1" parent="1">
          <mxGeometry x="837" y="121" width="112" height="50" as="geometry" />
        </mxCell>
        <mxCell id="EEXzHhZnM7cGJq6CUxRj-41" value="调价/比价" style="rounded=1;whiteSpace=wrap;html=1;fillColor=#f8cecc;strokeColor=#b85450;" vertex="1" parent="1">
          <mxGeometry x="990" y="323.5" width="112" height="50" as="geometry" />
        </mxCell>
        <mxCell id="EEXzHhZnM7cGJq6CUxRj-44" value="数据同步" style="rounded=1;whiteSpace=wrap;html=1;fillColor=#f8cecc;strokeColor=#b85450;" vertex="1" parent="1">
          <mxGeometry x="992" y="508" width="112" height="50" as="geometry" />
        </mxCell>
        <mxCell id="EEXzHhZnM7cGJq6CUxRj-45" value="汇率换算" style="rounded=1;whiteSpace=wrap;html=1;fillColor=#f8cecc;strokeColor=#b85450;" vertex="1" parent="1">
          <mxGeometry x="843" y="385" width="112" height="50" as="geometry" />
        </mxCell>
        <mxCell id="EEXzHhZnM7cGJq6CUxRj-46" value="邮件推送" style="rounded=1;whiteSpace=wrap;html=1;fillColor=#f8cecc;strokeColor=#b85450;" vertex="1" parent="1">
          <mxGeometry x="990" y="386" width="112" height="50" as="geometry" />
        </mxCell>
        <mxCell id="EEXzHhZnM7cGJq6CUxRj-51" value="" style="ellipse;shape=doubleEllipse;whiteSpace=wrap;html=1;aspect=fixed;dashed=1;dashPattern=1 4;fontSize=22;fillColor=#b1ddf0;strokeColor=#10739e;" vertex="1" parent="1">
          <mxGeometry x="-300" y="156.25" width="699.5" height="699.5" as="geometry" />
        </mxCell>
        <mxCell id="EEXzHhZnM7cGJq6CUxRj-52" value="国际通用能力" style="text;html=1;strokeColor=#56517e;fillColor=#d0cee2;align=center;verticalAlign=middle;whiteSpace=wrap;rounded=0;dashed=1;dashPattern=1 4;fontSize=23;fontColor=#000066;labelBackgroundColor=none;gradientColor=#3399FF;gradientDirection=east;" vertex="1" parent="1">
          <mxGeometry x="-64.75" y="120" width="229" height="81" as="geometry" />
        </mxCell>
        <mxCell id="EEXzHhZnM7cGJq6CUxRj-64" value="" style="ellipse;whiteSpace=wrap;html=1;aspect=fixed;dashed=1;dashPattern=1 4;labelBackgroundColor=none;fontSize=23;fontColor=#000066;fillColor=#9bb3fe;gradientColor=#9933FF;gradientDirection=east;" vertex="1" parent="1">
          <mxGeometry x="52" y="214" width="235" height="235" as="geometry" />
        </mxCell>
        <mxCell id="EEXzHhZnM7cGJq6CUxRj-53" value="商品鉴别" style="rounded=1;whiteSpace=wrap;html=1;fillColor=#9bb3fe;strokeColor=#b46504;" vertex="1" parent="1">
          <mxGeometry x="70" y="276.5" width="90" height="34.5" as="geometry" />
        </mxCell>
        <mxCell id="EEXzHhZnM7cGJq6CUxRj-55" value="商品备案" style="rounded=1;whiteSpace=wrap;html=1;fillColor=#9bb3fe;strokeColor=#b46504;" vertex="1" parent="1">
          <mxGeometry x="178" y="277" width="88" height="33" as="geometry" />
        </mxCell>
        <mxCell id="EEXzHhZnM7cGJq6CUxRj-57" value="新品推送" style="rounded=1;whiteSpace=wrap;html=1;fillColor=#9bb3fe;strokeColor=#b46504;" vertex="1" parent="1">
          <mxGeometry x="124.5" y="230.5" width="90" height="36.5" as="geometry" />
        </mxCell>
        <mxCell id="EEXzHhZnM7cGJq6CUxRj-65" value="商品翻译" style="rounded=1;whiteSpace=wrap;html=1;fillColor=#9bb3fe;strokeColor=#b46504;" vertex="1" parent="1">
          <mxGeometry x="70" y="327" width="90" height="34.5" as="geometry" />
        </mxCell>
        <mxCell id="EEXzHhZnM7cGJq6CUxRj-66" value="商品下架/上架" style="rounded=1;whiteSpace=wrap;html=1;fillColor=#9bb3fe;strokeColor=#b46504;" vertex="1" parent="1">
          <mxGeometry x="178" y="323.5" width="90" height="34.5" as="geometry" />
        </mxCell>
        <mxCell id="EEXzHhZnM7cGJq6CUxRj-67" value="数据分析" style="rounded=1;whiteSpace=wrap;html=1;fillColor=#9bb3fe;strokeColor=#b46504;" vertex="1" parent="1">
          <mxGeometry x="124.5" y="373.5" width="90" height="34.5" as="geometry" />
        </mxCell>
        <mxCell id="EEXzHhZnM7cGJq6CUxRj-68" value="商品中心" style="shape=callout;whiteSpace=wrap;html=1;perimeter=calloutPerimeter;dashed=1;dashPattern=1 4;labelBackgroundColor=none;fontSize=23;fontColor=#FFFFFF;fillColor=#9bb3fe;gradientColor=#3399FF;gradientDirection=east;rotation=30;" vertex="1" parent="1">
          <mxGeometry x="230" y="201" width="120" height="80" as="geometry" />
        </mxCell>
        <mxCell id="EEXzHhZnM7cGJq6CUxRj-69" value="" style="ellipse;whiteSpace=wrap;html=1;aspect=fixed;dashed=1;dashPattern=1 4;labelBackgroundColor=none;fontSize=23;fontColor=#000066;fillColor=#9bb3fe;gradientColor=#9933FF;gradientDirection=east;" vertex="1" parent="1">
          <mxGeometry x="-200" y="214" width="235" height="235" as="geometry" />
        </mxCell>
        <mxCell id="EEXzHhZnM7cGJq6CUxRj-70" value="供应链体系" style="shape=callout;whiteSpace=wrap;html=1;perimeter=calloutPerimeter;dashed=1;dashPattern=1 4;labelBackgroundColor=none;fontSize=23;fontColor=#FFFFFF;fillColor=#9bb3fe;gradientColor=#3399FF;gradientDirection=east;rotation=-45;" vertex="1" parent="1">
          <mxGeometry x="-260" y="192.5" width="120" height="80" as="geometry" />
        </mxCell>
        <mxCell id="EEXzHhZnM7cGJq6CUxRj-71" value="提货/集货" style="rounded=1;whiteSpace=wrap;html=1;fillColor=#9bb3fe;strokeColor=#b46504;" vertex="1" parent="1">
          <mxGeometry x="-130" y="236" width="90" height="36.5" as="geometry" />
        </mxCell>
        <mxCell id="EEXzHhZnM7cGJq6CUxRj-72" value="承运商对接" style="rounded=1;whiteSpace=wrap;html=1;fillColor=#9bb3fe;strokeColor=#b46504;" vertex="1" parent="1">
          <mxGeometry x="-190" y="284.5" width="90" height="36.5" as="geometry" />
        </mxCell>
        <mxCell id="EEXzHhZnM7cGJq6CUxRj-73" value="自建仓内流程" style="rounded=1;whiteSpace=wrap;html=1;fillColor=#9bb3fe;strokeColor=#b46504;" vertex="1" parent="1">
          <mxGeometry x="-68" y="284.5" width="90" height="36.5" as="geometry" />
        </mxCell>
        <mxCell id="EEXzHhZnM7cGJq6CUxRj-74" value="物流轨迹" style="rounded=1;whiteSpace=wrap;html=1;fillColor=#9bb3fe;strokeColor=#b46504;" vertex="1" parent="1">
          <mxGeometry x="-130" y="337" width="90" height="36.5" as="geometry" />
        </mxCell>
        <mxCell id="EEXzHhZnM7cGJq6CUxRj-75" value="" style="ellipse;whiteSpace=wrap;html=1;aspect=fixed;dashed=1;dashPattern=1 4;labelBackgroundColor=none;fontSize=23;fontColor=#000066;fillColor=#9bb3fe;gradientColor=#9933FF;gradientDirection=east;" vertex="1" parent="1">
          <mxGeometry x="159" y="436" width="214" height="214" as="geometry" />
        </mxCell>
        <mxCell id="EEXzHhZnM7cGJq6CUxRj-76" value="供给中心" style="shape=callout;whiteSpace=wrap;html=1;perimeter=calloutPerimeter;dashed=1;dashPattern=1 4;labelBackgroundColor=none;fontSize=23;fontColor=#FFFFFF;fillColor=#9bb3fe;gradientColor=#3399FF;gradientDirection=east;rotation=45;" vertex="1" parent="1">
          <mxGeometry x="340" y="444.5" width="120" height="80" as="geometry" />
        </mxCell>
        <mxCell id="EEXzHhZnM7cGJq6CUxRj-77" value="多渠道最低价" style="rounded=1;whiteSpace=wrap;html=1;fillColor=#9bb3fe;strokeColor=#b46504;" vertex="1" parent="1">
          <mxGeometry x="212.5" y="467.25" width="90" height="34.5" as="geometry" />
        </mxCell>
        <mxCell id="EEXzHhZnM7cGJq6CUxRj-78" value="一品多销" style="rounded=1;whiteSpace=wrap;html=1;fillColor=#9bb3fe;strokeColor=#b46504;" vertex="1" parent="1">
          <mxGeometry x="164.25" y="516.75" width="90" height="34.5" as="geometry" />
        </mxCell>
        <mxCell id="EEXzHhZnM7cGJq6CUxRj-79" value="汇率转换" style="rounded=1;whiteSpace=wrap;html=1;fillColor=#9bb3fe;strokeColor=#b46504;" vertex="1" parent="1">
          <mxGeometry x="270" y="516.75" width="90" height="34.5" as="geometry" />
        </mxCell>
        <mxCell id="EEXzHhZnM7cGJq6CUxRj-80" value="" style="ellipse;whiteSpace=wrap;html=1;aspect=fixed;dashed=1;dashPattern=1 4;labelBackgroundColor=none;fontSize=23;fontColor=#000066;fillColor=#9bb3fe;gradientColor=#9933FF;gradientDirection=east;" vertex="1" parent="1">
          <mxGeometry x="-270" y="449" width="242.75" height="242.75" as="geometry" />
        </mxCell>
        <mxCell id="EEXzHhZnM7cGJq6CUxRj-81" value="履约中心" style="shape=callout;whiteSpace=wrap;html=1;perimeter=calloutPerimeter;dashed=1;dashPattern=1 4;labelBackgroundColor=none;fontSize=23;fontColor=#FFFFFF;fillColor=#9bb3fe;gradientColor=#3399FF;gradientDirection=east;rotation=-45;" vertex="1" parent="1">
          <mxGeometry x="-350" y="450" width="120" height="80" as="geometry" />
        </mxCell>
        <mxCell id="EEXzHhZnM7cGJq6CUxRj-82" value="发货时效" style="rounded=1;whiteSpace=wrap;html=1;fillColor=#9bb3fe;strokeColor=#b46504;" vertex="1" parent="1">
          <mxGeometry x="-204.62" y="474.5" width="112" height="50" as="geometry" />
        </mxCell>
        <mxCell id="EEXzHhZnM7cGJq6CUxRj-84" value="订单路由中心" style="rounded=1;whiteSpace=wrap;html=1;fillColor=#9bb3fe;strokeColor=#b46504;" vertex="1" parent="1">
          <mxGeometry x="-204.62" y="547.88" width="114.62" height="42.12" as="geometry" />
        </mxCell>
        <mxCell id="EEXzHhZnM7cGJq6CUxRj-85" value="数据同步" style="rounded=1;whiteSpace=wrap;html=1;fillColor=#9bb3fe;strokeColor=#b46504;" vertex="1" parent="1">
          <mxGeometry x="-205.93" y="608.88" width="114.62" height="42.12" as="geometry" />
        </mxCell>
        <mxCell id="EEXzHhZnM7cGJq6CUxRj-86" value="" style="ellipse;whiteSpace=wrap;html=1;aspect=fixed;dashed=1;dashPattern=1 4;labelBackgroundColor=none;fontSize=23;fontColor=#000066;fillColor=#9bb3fe;gradientColor=#9933FF;gradientDirection=east;" vertex="1" parent="1">
          <mxGeometry x="-12" y="608.88" width="202" height="202" as="geometry" />
        </mxCell>
        <mxCell id="EEXzHhZnM7cGJq6CUxRj-59" value="国际化站点/邮件" style="rounded=1;whiteSpace=wrap;html=1;fillColor=#9bb3fe;strokeColor=#b46504;" vertex="1" parent="1">
          <mxGeometry x="33" y="633" width="112" height="50" as="geometry" />
        </mxCell>
        <mxCell id="EEXzHhZnM7cGJq6CUxRj-87" value="翻译中心" style="rounded=1;whiteSpace=wrap;html=1;fillColor=#9bb3fe;strokeColor=#b46504;" vertex="1" parent="1">
          <mxGeometry x="33" y="721" width="112" height="50" as="geometry" />
        </mxCell>
        <mxCell id="EEXzHhZnM7cGJq6CUxRj-89" value="基础功能" style="shape=callout;whiteSpace=wrap;html=1;perimeter=calloutPerimeter;dashed=1;dashPattern=1 4;labelBackgroundColor=none;fontSize=23;fontColor=#FFFFFF;fillColor=#9bb3fe;gradientColor=#3399FF;gradientDirection=east;rotation=60;" vertex="1" parent="1">
          <mxGeometry x="167" y="691.75" width="120" height="80" as="geometry" />
        </mxCell>
        <mxCell id="EEXzHhZnM7cGJq6CUxRj-90" value="未来的未来" style="ellipse;whiteSpace=wrap;html=1;aspect=fixed;dashed=1;dashPattern=1 4;labelBackgroundColor=none;fontSize=23;fontColor=#000066;fillColor=#9bb3fe;gradientColor=#66FFB3;gradientDirection=east;" vertex="1" parent="1">
          <mxGeometry x="-20" y="430" width="171" height="171" as="geometry" />
        </mxCell>
        <mxCell id="EEXzHhZnM7cGJq6CUxRj-91" value="商品中心" style="text;html=1;strokeColor=#56517e;fillColor=#d0cee2;align=center;verticalAlign=middle;whiteSpace=wrap;rounded=0;dashed=1;dashPattern=1 1;fontSize=22;fontColor=#006666;" vertex="1" parent="1">
          <mxGeometry x="-1091" y="683" width="40" height="172.12" as="geometry" />
        </mxCell>
        <mxCell id="EEXzHhZnM7cGJq6CUxRj-92" value="独有商品池" style="rounded=1;whiteSpace=wrap;html=1;fillColor=#f8cecc;strokeColor=#b85450;" vertex="1" parent="1">
          <mxGeometry x="-1024" y="782.75" width="70" height="42.75" as="geometry" />
        </mxCell>
        <mxCell id="EEXzHhZnM7cGJq6CUxRj-94" value="中心商品池" style="rounded=1;whiteSpace=wrap;html=1;fillColor=#f8cecc;strokeColor=#b85450;" vertex="1" parent="1">
          <mxGeometry x="-1024" y="726.5" width="70" height="42.75" as="geometry" />
        </mxCell>
        <mxCell id="EEXzHhZnM7cGJq6CUxRj-95" value="商品匹配" style="rounded=1;whiteSpace=wrap;html=1;fillColor=#f8cecc;strokeColor=#b85450;" vertex="1" parent="1">
          <mxGeometry x="-928" y="726.5" width="70" height="42.75" as="geometry" />
        </mxCell>
        <mxCell id="EEXzHhZnM7cGJq6CUxRj-96" value="商品下架/上架" style="rounded=1;whiteSpace=wrap;html=1;fillColor=#f8cecc;strokeColor=#b85450;" vertex="1" parent="1">
          <mxGeometry x="-928" y="782.75" width="70" height="42.75" as="geometry" />
        </mxCell>
        <mxCell id="EEXzHhZnM7cGJq6CUxRj-97" value="申请新品" style="rounded=1;whiteSpace=wrap;html=1;fillColor=#f8cecc;strokeColor=#b85450;" vertex="1" parent="1">
          <mxGeometry x="-824" y="726.5" width="70" height="42.75" as="geometry" />
        </mxCell>
        <mxCell id="EEXzHhZnM7cGJq6CUxRj-98" value="商品折扣" style="rounded=1;whiteSpace=wrap;html=1;fillColor=#f8cecc;strokeColor=#b85450;" vertex="1" parent="1">
          <mxGeometry x="-824" y="783.75" width="70" height="42.75" as="geometry" />
        </mxCell>
        <mxCell id="EEXzHhZnM7cGJq6CUxRj-99" value="数据分析" style="rounded=1;whiteSpace=wrap;html=1;fillColor=#f8cecc;strokeColor=#b85450;" vertex="1" parent="1">
          <mxGeometry x="-726" y="726.5" width="70" height="42.75" as="geometry" />
        </mxCell>
        <mxCell id="EEXzHhZnM7cGJq6CUxRj-100" value="活动申报" style="rounded=1;whiteSpace=wrap;html=1;fillColor=#f8cecc;strokeColor=#b85450;" vertex="1" parent="1">
          <mxGeometry x="-726" y="782.75" width="70" height="42.75" as="geometry" />
        </mxCell>
        <mxCell id="EEXzHhZnM7cGJq6CUxRj-101" value="库存控制" style="rounded=1;whiteSpace=wrap;html=1;fillColor=#f8cecc;strokeColor=#b85450;" vertex="1" parent="1">
          <mxGeometry x="-638" y="726.5" width="70" height="42.75" as="geometry" />
        </mxCell>
        <mxCell id="EEXzHhZnM7cGJq6CUxRj-102" value="商品翻译" style="rounded=1;whiteSpace=wrap;html=1;fillColor=#f8cecc;strokeColor=#b85450;" vertex="1" parent="1">
          <mxGeometry x="-638" y="782.75" width="70" height="42.75" as="geometry" />
        </mxCell>
        <mxCell id="EEXzHhZnM7cGJq6CUxRj-103" value="供销中心" style="text;html=1;strokeColor=#56517e;fillColor=#d0cee2;align=center;verticalAlign=middle;whiteSpace=wrap;rounded=0;dashed=1;dashPattern=1 1;fontSize=22;fontColor=#004C99;" vertex="1" parent="1">
          <mxGeometry x="-1091" y="501.88" width="40" height="172.12" as="geometry" />
        </mxCell>
        <mxCell id="EEXzHhZnM7cGJq6CUxRj-104" value="" style="rounded=0;whiteSpace=wrap;html=1;fillColor=#b1ddf0;strokeColor=#10739e;dashed=1;dashPattern=1 1;gradientColor=#CC6600;" vertex="1" parent="1">
          <mxGeometry x="-1043" y="501.88" width="485" height="170" as="geometry" />
        </mxCell>
        <mxCell id="EEXzHhZnM7cGJq6CUxRj-105" value="定价模型" style="rounded=1;whiteSpace=wrap;html=1;fillColor=#f8cecc;strokeColor=#b85450;" vertex="1" parent="1">
          <mxGeometry x="-1024" y="600" width="70" height="42.75" as="geometry" />
        </mxCell>
        <mxCell id="EEXzHhZnM7cGJq6CUxRj-106" value="售卖区域" style="rounded=1;whiteSpace=wrap;html=1;fillColor=#f8cecc;strokeColor=#b85450;" vertex="1" parent="1">
          <mxGeometry x="-1024" y="544.13" width="70" height="42.75" as="geometry" />
        </mxCell>
        <mxCell id="EEXzHhZnM7cGJq6CUxRj-107" value="最优价推荐" style="rounded=1;whiteSpace=wrap;html=1;fillColor=#f8cecc;strokeColor=#b85450;" vertex="1" parent="1">
          <mxGeometry x="-928" y="543.25" width="70" height="42.75" as="geometry" />
        </mxCell>
        <mxCell id="EEXzHhZnM7cGJq6CUxRj-108" value="自动跟价" style="rounded=1;whiteSpace=wrap;html=1;fillColor=#f8cecc;strokeColor=#b85450;" vertex="1" parent="1">
          <mxGeometry x="-928" y="600" width="70" height="42.75" as="geometry" />
        </mxCell>
        <mxCell id="EEXzHhZnM7cGJq6CUxRj-109" value="数据报表" style="rounded=1;whiteSpace=wrap;html=1;fillColor=#f8cecc;strokeColor=#b85450;" vertex="1" parent="1">
          <mxGeometry x="-835.5" y="544.13" width="70" height="42.75" as="geometry" />
        </mxCell>
        <mxCell id="EEXzHhZnM7cGJq6CUxRj-110" value="出价渠道" style="rounded=1;whiteSpace=wrap;html=1;fillColor=#f8cecc;strokeColor=#b85450;" vertex="1" parent="1">
          <mxGeometry x="-835.5" y="600" width="70" height="42.75" as="geometry" />
        </mxCell>
        <mxCell id="EEXzHhZnM7cGJq6CUxRj-111" value="履约中心" style="text;html=1;strokeColor=#56517e;fillColor=#d0cee2;align=center;verticalAlign=middle;whiteSpace=wrap;rounded=0;dashed=1;dashPattern=1 1;fontSize=22;fontColor=#FFFFFF;gradientColor=default;" vertex="1" parent="1">
          <mxGeometry x="-1091" y="323" width="40" height="172.12" as="geometry" />
        </mxCell>
        <mxCell id="EEXzHhZnM7cGJq6CUxRj-112" value="" style="rounded=0;whiteSpace=wrap;html=1;fillColor=#b1ddf0;strokeColor=#10739e;dashed=1;dashPattern=1 1;gradientColor=#CC6600;" vertex="1" parent="1">
          <mxGeometry x="-1043" y="325.12" width="485" height="170" as="geometry" />
        </mxCell>
        <mxCell id="EEXzHhZnM7cGJq6CUxRj-113" value="创建订单" style="rounded=1;whiteSpace=wrap;html=1;fillColor=#f8cecc;strokeColor=#b85450;" vertex="1" parent="1">
          <mxGeometry x="-1030" y="353" width="70" height="42.75" as="geometry" />
        </mxCell>
        <mxCell id="EEXzHhZnM7cGJq6CUxRj-114" value="卖家履约" style="rounded=1;whiteSpace=wrap;html=1;fillColor=#f8cecc;strokeColor=#b85450;" vertex="1" parent="1">
          <mxGeometry x="-928" y="353" width="70" height="42.75" as="geometry" />
        </mxCell>
        <mxCell id="EEXzHhZnM7cGJq6CUxRj-115" value="承运商" style="rounded=1;whiteSpace=wrap;html=1;fillColor=#f8cecc;strokeColor=#b85450;" vertex="1" parent="1">
          <mxGeometry x="-825" y="353" width="70" height="42.75" as="geometry" />
        </mxCell>
        <mxCell id="EEXzHhZnM7cGJq6CUxRj-116" value="轨迹中心" style="rounded=1;whiteSpace=wrap;html=1;fillColor=#f8cecc;strokeColor=#b85450;" vertex="1" parent="1">
          <mxGeometry x="-1029" y="410.25" width="70" height="42.75" as="geometry" />
        </mxCell>
        <mxCell id="EEXzHhZnM7cGJq6CUxRj-117" value="履约提醒" style="rounded=1;whiteSpace=wrap;html=1;fillColor=#f8cecc;strokeColor=#b85450;" vertex="1" parent="1">
          <mxGeometry x="-928" y="410.25" width="70" height="42.75" as="geometry" />
        </mxCell>
        <mxCell id="EEXzHhZnM7cGJq6CUxRj-118" value="履约分析" style="rounded=1;whiteSpace=wrap;html=1;fillColor=#f8cecc;strokeColor=#b85450;" vertex="1" parent="1">
          <mxGeometry x="-826" y="410.25" width="70" height="42.75" as="geometry" />
        </mxCell>
        <mxCell id="EEXzHhZnM7cGJq6CUxRj-119" value="发票" style="rounded=1;whiteSpace=wrap;html=1;fillColor=#f8cecc;strokeColor=#b85450;" vertex="1" parent="1">
          <mxGeometry x="-726" y="355" width="70" height="42.75" as="geometry" />
        </mxCell>
        <mxCell id="EEXzHhZnM7cGJq6CUxRj-120" value="结算" style="rounded=1;whiteSpace=wrap;html=1;fillColor=#f8cecc;strokeColor=#b85450;" vertex="1" parent="1">
          <mxGeometry x="-726" y="410.25" width="70" height="42.75" as="geometry" />
        </mxCell>
        <mxCell id="EEXzHhZnM7cGJq6CUxRj-121" value="订单取消" style="rounded=1;whiteSpace=wrap;html=1;fillColor=#f8cecc;strokeColor=#b85450;" vertex="1" parent="1">
          <mxGeometry x="-638" y="353" width="70" height="42.75" as="geometry" />
        </mxCell>
        <mxCell id="EEXzHhZnM7cGJq6CUxRj-122" value="退货/议价" style="rounded=1;whiteSpace=wrap;html=1;fillColor=#f8cecc;strokeColor=#b85450;" vertex="1" parent="1">
          <mxGeometry x="-638" y="410.25" width="70" height="42.75" as="geometry" />
        </mxCell>
        <mxCell id="EEXzHhZnM7cGJq6CUxRj-123" value="平台化功能" style="text;html=1;strokeColor=#56517e;fillColor=#d0cee2;align=center;verticalAlign=middle;whiteSpace=wrap;rounded=0;dashed=1;dashPattern=1 1;fontSize=22;fontColor=#994C00;gradientColor=#00CC00;" vertex="1" parent="1">
          <mxGeometry x="-1091" y="143" width="40" height="172.12" as="geometry" />
        </mxCell>
        <mxCell id="EEXzHhZnM7cGJq6CUxRj-124" value="" style="rounded=0;whiteSpace=wrap;html=1;fillColor=#b1ddf0;strokeColor=#10739e;dashed=1;dashPattern=1 1;gradientColor=#CC6600;" vertex="1" parent="1">
          <mxGeometry x="-1043" y="145.12" width="485" height="170" as="geometry" />
        </mxCell>
        <mxCell id="EEXzHhZnM7cGJq6CUxRj-125" value="插件功能" style="rounded=1;whiteSpace=wrap;html=1;fillColor=#f8cecc;strokeColor=#b85450;" vertex="1" parent="1">
          <mxGeometry x="-1030" y="253" width="70" height="42.75" as="geometry" />
        </mxCell>
        <mxCell id="EEXzHhZnM7cGJq6CUxRj-126" value="OpenaAPI" style="rounded=1;whiteSpace=wrap;html=1;fillColor=#f8cecc;strokeColor=#b85450;" vertex="1" parent="1">
          <mxGeometry x="-1030" y="193" width="70" height="42.75" as="geometry" />
        </mxCell>
        <mxCell id="EEXzHhZnM7cGJq6CUxRj-127" value="租户入驻" style="rounded=1;whiteSpace=wrap;html=1;fillColor=#f8cecc;strokeColor=#b85450;" vertex="1" parent="1">
          <mxGeometry x="-938" y="253" width="70" height="42.75" as="geometry" />
        </mxCell>
        <mxCell id="EEXzHhZnM7cGJq6CUxRj-128" value="配置化对接第三方" style="rounded=1;whiteSpace=wrap;html=1;fillColor=#f8cecc;strokeColor=#b85450;" vertex="1" parent="1">
          <mxGeometry x="-939" y="193" width="70" height="42.75" as="geometry" />
        </mxCell>
        <mxCell id="EEXzHhZnM7cGJq6CUxRj-129" value="网站爬虫" style="rounded=1;whiteSpace=wrap;html=1;fillColor=#f8cecc;strokeColor=#b85450;" vertex="1" parent="1">
          <mxGeometry x="-835.5" y="193" width="70" height="42.75" as="geometry" />
        </mxCell>
        <mxCell id="EEXzHhZnM7cGJq6CUxRj-130" value="任务调度" style="rounded=1;whiteSpace=wrap;html=1;fillColor=#f8cecc;strokeColor=#b85450;" vertex="1" parent="1">
          <mxGeometry x="-835.5" y="253" width="70" height="42.75" as="geometry" />
        </mxCell>
        <mxCell id="EEXzHhZnM7cGJq6CUxRj-131" value="消息提醒" style="rounded=1;whiteSpace=wrap;html=1;fillColor=#f8cecc;strokeColor=#b85450;" vertex="1" parent="1">
          <mxGeometry x="-738" y="193" width="70" height="42.75" as="geometry" />
        </mxCell>
        <mxCell id="EEXzHhZnM7cGJq6CUxRj-132" value="邮件推送" style="rounded=1;whiteSpace=wrap;html=1;fillColor=#f8cecc;strokeColor=#b85450;" vertex="1" parent="1">
          <mxGeometry x="-738" y="253" width="70" height="42.75" as="geometry" />
        </mxCell>
        <mxCell id="EEXzHhZnM7cGJq6CUxRj-133" value="站点开通" style="rounded=1;whiteSpace=wrap;html=1;fillColor=#f8cecc;strokeColor=#b85450;" vertex="1" parent="1">
          <mxGeometry x="-648" y="193" width="70" height="42.75" as="geometry" />
        </mxCell>
        <mxCell id="Uq55cALjWnQUIRVbi7rl-1" value="" style="rounded=0;whiteSpace=wrap;html=1;fillColor=#b1ddf0;strokeColor=#10739e;dashed=1;dashPattern=1 1;gradientColor=#00CC66;" vertex="1" parent="1">
          <mxGeometry x="-890" y="1430" width="528" height="170" as="geometry" />
        </mxCell>
        <mxCell id="Uq55cALjWnQUIRVbi7rl-2" value="组建化能力" style="rounded=1;whiteSpace=wrap;html=1;fillColor=#F19C99;strokeColor=#b85450;" vertex="1" parent="1">
          <mxGeometry x="-857.38" y="1460" width="90" height="42.75" as="geometry" />
        </mxCell>
        <mxCell id="Uq55cALjWnQUIRVbi7rl-3" value="开放平台能力" style="rounded=1;whiteSpace=wrap;html=1;fillColor=#F19C99;strokeColor=#b85450;" vertex="1" parent="1">
          <mxGeometry x="-725.38" y="1461.38" width="88" height="38.62" as="geometry" />
        </mxCell>
        <mxCell id="Uq55cALjWnQUIRVbi7rl-4" value="API回调能力" style="rounded=1;whiteSpace=wrap;html=1;fillColor=#F19C99;strokeColor=#b85450;" vertex="1" parent="1">
          <mxGeometry x="-595.38" y="1460" width="88" height="38.62" as="geometry" />
        </mxCell>
        <mxCell id="Uq55cALjWnQUIRVbi7rl-5" value="任务调度" style="rounded=1;whiteSpace=wrap;html=1;fillColor=#F19C99;strokeColor=#b85450;" vertex="1" parent="1">
          <mxGeometry x="-857.38" y="1530" width="88" height="38.62" as="geometry" />
        </mxCell>
        <mxCell id="Uq55cALjWnQUIRVbi7rl-6" value="插件化能力" style="rounded=1;whiteSpace=wrap;html=1;fillColor=#F19C99;strokeColor=#b85450;" vertex="1" parent="1">
          <mxGeometry x="-725.38" y="1530" width="88" height="38.62" as="geometry" />
        </mxCell>
        <mxCell id="Uq55cALjWnQUIRVbi7rl-7" value="数据隔离" style="rounded=1;whiteSpace=wrap;html=1;fillColor=#F19C99;strokeColor=#b85450;" vertex="1" parent="1">
          <mxGeometry x="-595.38" y="1530" width="88" height="38.62" as="geometry" />
        </mxCell>
        <mxCell id="Uq55cALjWnQUIRVbi7rl-8" value="站点开通" style="rounded=1;whiteSpace=wrap;html=1;fillColor=#F19C99;strokeColor=#b85450;" vertex="1" parent="1">
          <mxGeometry x="-477.38" y="1460" width="88" height="38.62" as="geometry" />
        </mxCell>
        <mxCell id="Uq55cALjWnQUIRVbi7rl-9" value="数据复制" style="rounded=1;whiteSpace=wrap;html=1;fillColor=#F19C99;strokeColor=#b85450;" vertex="1" parent="1">
          <mxGeometry x="-475.38" y="1530" width="88" height="38.62" as="geometry" />
        </mxCell>
        <mxCell id="Uq55cALjWnQUIRVbi7rl-10" value="" style="rounded=0;whiteSpace=wrap;html=1;fillColor=#b1ddf0;strokeColor=#10739e;dashed=1;dashPattern=1 1;gradientColor=#999900;" vertex="1" parent="1">
          <mxGeometry x="-1093" y="1009" width="1388" height="160" as="geometry" />
        </mxCell>
        <mxCell id="Uq55cALjWnQUIRVbi7rl-11" value="审核功能" style="rounded=1;whiteSpace=wrap;html=1;fillColor=#f8cecc;strokeColor=#b85450;" vertex="1" parent="1">
          <mxGeometry x="-1048" y="1029" width="70" height="42.75" as="geometry" />
        </mxCell>
        <mxCell id="Uq55cALjWnQUIRVbi7rl-12" value="数据报表" style="rounded=1;whiteSpace=wrap;html=1;fillColor=#f8cecc;strokeColor=#b85450;" vertex="1" parent="1">
          <mxGeometry x="-915" y="1029" width="70" height="42.75" as="geometry" />
        </mxCell>
        <mxCell id="Uq55cALjWnQUIRVbi7rl-13" value="租户运营" style="rounded=1;whiteSpace=wrap;html=1;fillColor=#f8cecc;strokeColor=#b85450;" vertex="1" parent="1">
          <mxGeometry x="-792.38" y="1029" width="70" height="42.75" as="geometry" />
        </mxCell>
        <mxCell id="Uq55cALjWnQUIRVbi7rl-14" value="履约运营" style="rounded=1;whiteSpace=wrap;html=1;fillColor=#f8cecc;strokeColor=#b85450;" vertex="1" parent="1">
          <mxGeometry x="-651.38" y="1029" width="70" height="42.75" as="geometry" />
        </mxCell>
        <mxCell id="Uq55cALjWnQUIRVbi7rl-15" value="插件化运营" style="rounded=1;whiteSpace=wrap;html=1;fillColor=#f8cecc;strokeColor=#b85450;" vertex="1" parent="1">
          <mxGeometry x="-512.38" y="1029" width="70" height="42.75" as="geometry" />
        </mxCell>
        <mxCell id="Uq55cALjWnQUIRVbi7rl-16" value="组件化运营" style="rounded=1;whiteSpace=wrap;html=1;fillColor=#f8cecc;strokeColor=#b85450;" vertex="1" parent="1">
          <mxGeometry x="-366" y="1029" width="70" height="42.75" as="geometry" />
        </mxCell>
        <mxCell id="Uq55cALjWnQUIRVbi7rl-17" value="数据核对" style="rounded=1;whiteSpace=wrap;html=1;fillColor=#f8cecc;strokeColor=#b85450;" vertex="1" parent="1">
          <mxGeometry x="-235" y="1029" width="70" height="42.75" as="geometry" />
        </mxCell>
        <mxCell id="Uq55cALjWnQUIRVbi7rl-18" value="告警/通知" style="rounded=1;whiteSpace=wrap;html=1;fillColor=#f8cecc;strokeColor=#b85450;" vertex="1" parent="1">
          <mxGeometry x="-97.62" y="1029" width="70" height="42.75" as="geometry" />
        </mxCell>
        <mxCell id="Uq55cALjWnQUIRVbi7rl-19" value="入驻审批" style="rounded=1;whiteSpace=wrap;html=1;fillColor=#f8cecc;strokeColor=#b85450;" vertex="1" parent="1">
          <mxGeometry x="25" y="1029" width="70" height="42.75" as="geometry" />
        </mxCell>
        <mxCell id="Uq55cALjWnQUIRVbi7rl-20" value="租户管理" style="rounded=1;whiteSpace=wrap;html=1;fillColor=#f8cecc;strokeColor=#b85450;" vertex="1" parent="1">
          <mxGeometry x="155" y="1029" width="70" height="42.75" as="geometry" />
        </mxCell>
        <mxCell id="Uq55cALjWnQUIRVbi7rl-21" value="权限控制" style="rounded=1;whiteSpace=wrap;html=1;fillColor=#f8cecc;strokeColor=#b85450;" vertex="1" parent="1">
          <mxGeometry x="-1048" y="1099" width="70" height="42.75" as="geometry" />
        </mxCell>
        <mxCell id="Uq55cALjWnQUIRVbi7rl-22" value="功能推广" style="rounded=1;whiteSpace=wrap;html=1;fillColor=#f8cecc;strokeColor=#b85450;" vertex="1" parent="1">
          <mxGeometry x="-915" y="1099" width="70" height="42.75" as="geometry" />
        </mxCell>
        <mxCell id="Uq55cALjWnQUIRVbi7rl-23" value="营销中心" style="rounded=1;whiteSpace=wrap;html=1;fillColor=#f8cecc;strokeColor=#b85450;" vertex="1" parent="1">
          <mxGeometry x="-793" y="1099" width="70" height="42.75" as="geometry" />
        </mxCell>
        <mxCell id="Uq55cALjWnQUIRVbi7rl-24" value="数据分析" style="rounded=1;whiteSpace=wrap;html=1;fillColor=#f8cecc;strokeColor=#b85450;" vertex="1" parent="1">
          <mxGeometry x="-653" y="1099" width="70" height="42.75" as="geometry" />
        </mxCell>
        <mxCell id="Uq55cALjWnQUIRVbi7rl-25" value="商品管理" style="rounded=1;whiteSpace=wrap;html=1;fillColor=#f8cecc;strokeColor=#b85450;" vertex="1" parent="1">
          <mxGeometry x="-513" y="1099" width="70" height="42.75" as="geometry" />
        </mxCell>
        <mxCell id="Uq55cALjWnQUIRVbi7rl-28" value="" style="endArrow=classic;startArrow=classic;html=1;rounded=0;fontSize=23;fontColor=#994C00;dashed=1;dashPattern=1 1;shape=link;fillColor=#b1ddf0;strokeColor=#10739e;" edge="1" parent="1">
          <mxGeometry width="50" height="50" relative="1" as="geometry">
            <mxPoint x="-1160" y="945" as="sourcePoint" />
            <mxPoint x="290" y="945" as="targetPoint" />
          </mxGeometry>
        </mxCell>
        <mxCell id="Uq55cALjWnQUIRVbi7rl-29" value="运&lt;br&gt;营&lt;br&gt;管&lt;br&gt;理" style="text;html=1;strokeColor=#56517e;fillColor=#d0cee2;align=center;verticalAlign=middle;whiteSpace=wrap;rounded=0;dashed=1;dashPattern=1 1;fontSize=22;fontColor=#006666;gradientColor=#00CC00;" vertex="1" parent="1">
          <mxGeometry x="-1158" y="1009" width="58" height="160" as="geometry" />
        </mxCell>
        <mxCell id="Uq55cALjWnQUIRVbi7rl-30" value="站点维护" style="rounded=1;whiteSpace=wrap;html=1;fillColor=#f8cecc;strokeColor=#b85450;" vertex="1" parent="1">
          <mxGeometry x="-366" y="1099" width="70" height="42.75" as="geometry" />
        </mxCell>
        <mxCell id="Uq55cALjWnQUIRVbi7rl-31" value="数据隔离" style="rounded=1;whiteSpace=wrap;html=1;fillColor=#f8cecc;strokeColor=#b85450;" vertex="1" parent="1">
          <mxGeometry x="-235" y="1099" width="70" height="42.75" as="geometry" />
        </mxCell>
        <mxCell id="Uq55cALjWnQUIRVbi7rl-32" value="复制中心" style="rounded=1;whiteSpace=wrap;html=1;fillColor=#f8cecc;strokeColor=#b85450;" vertex="1" parent="1">
          <mxGeometry x="-100" y="1099" width="70" height="42.75" as="geometry" />
        </mxCell>
        <mxCell id="Uq55cALjWnQUIRVbi7rl-33" value="任务中心" style="rounded=1;whiteSpace=wrap;html=1;fillColor=#f8cecc;strokeColor=#b85450;" vertex="1" parent="1">
          <mxGeometry x="25" y="1099" width="70" height="42.75" as="geometry" />
        </mxCell>
        <mxCell id="6oQTB0y6NrpeV0Yk_Au4-1" value="" style="endArrow=classic;startArrow=classic;html=1;rounded=0;fontSize=23;fontColor=#994C00;jumpSize=7;strokeWidth=7;fillColor=#d0cee2;strokeColor=#56517e;" edge="1" parent="1">
          <mxGeometry width="50" height="50" relative="1" as="geometry">
            <mxPoint x="-399.5" y="888" as="sourcePoint" />
            <mxPoint x="-398.5" y="1008" as="targetPoint" />
          </mxGeometry>
        </mxCell>
        <mxCell id="6oQTB0y6NrpeV0Yk_Au4-3" value="依赖" style="edgeLabel;html=1;align=center;verticalAlign=middle;resizable=0;points=[];fontSize=23;fontColor=#994C00;" vertex="1" connectable="0" parent="6oQTB0y6NrpeV0Yk_Au4-1">
          <mxGeometry x="-0.1846" y="1" relative="1" as="geometry">
            <mxPoint y="25" as="offset" />
          </mxGeometry>
        </mxCell>
        <mxCell id="6oQTB0y6NrpeV0Yk_Au4-4" value="" style="endArrow=classic;startArrow=classic;html=1;rounded=0;fontSize=23;fontColor=#994C00;jumpSize=7;strokeWidth=7;fillColor=#d0cee2;strokeColor=#56517e;" edge="1" parent="1">
          <mxGeometry width="50" height="50" relative="1" as="geometry">
            <mxPoint x="-307.99165406424163" y="570.4161772301502" as="sourcePoint" />
            <mxPoint x="-538" y="572" as="targetPoint" />
          </mxGeometry>
        </mxCell>
        <mxCell id="6oQTB0y6NrpeV0Yk_Au4-5" value="依赖" style="edgeLabel;html=1;align=center;verticalAlign=middle;resizable=0;points=[];fontSize=23;fontColor=#994C00;" vertex="1" connectable="0" parent="6oQTB0y6NrpeV0Yk_Au4-4">
          <mxGeometry x="-0.1846" y="1" relative="1" as="geometry">
            <mxPoint as="offset" />
          </mxGeometry>
        </mxCell>
      </root>
    </mxGraphModel>
  </diagram>
  <diagram id="9ZtgjOFhwCREHtx4LFIS" name="第 3 页">
    <mxGraphModel dx="2082" dy="1185" grid="1" gridSize="10" guides="1" tooltips="1" connect="1" arrows="1" fold="1" page="1" pageScale="1" pageWidth="827" pageHeight="1169" math="0" shadow="0">
      <root>
        <mxCell id="0" />
        <mxCell id="1" parent="0" />
      </root>
    </mxGraphModel>
  </diagram>
</mxfile>
